{
	"patcher" : 	{
		"fileversion" : 1,
		"appversion" : 		{
			"major" : 6,
			"minor" : 0,
			"revision" : 8
		}
,
		"rect" : [ 75.0, 311.0, 574.0, 670.0 ],
		"bgcolor" : [ 0.9, 0.9, 0.9, 1.0 ],
		"bglocked" : 0,
		"openinpresentation" : 0,
		"default_fontsize" : 12.0,
		"default_fontface" : 0,
		"default_fontname" : "Arial",
		"gridonopen" : 0,
		"gridsize" : [ 15.0, 15.0 ],
		"gridsnaponopen" : 0,
		"statusbarvisible" : 2,
		"toolbarvisible" : 1,
		"boxanimatetime" : 200,
		"imprint" : 0,
		"enablehscroll" : 1,
		"enablevscroll" : 1,
		"devicewidth" : 0.0,
		"description" : "",
		"digest" : "",
		"tags" : "",
		"boxes" : [ 			{
				"box" : 				{
					"fontname" : "Arial",
					"fontsize" : 12.0,
					"id" : "obj-19",
					"maxclass" : "newobj",
					"numinlets" : 0,
					"numoutlets" : 1,
					"outlettype" : [ "" ],
					"patching_rect" : [ 305.75, 12.0, 151.0, 20.0 ],
					"text" : "param interp_amount 0.25"
				}

			}
, 			{
				"box" : 				{
					"fontname" : "Arial",
					"fontsize" : 12.0,
					"id" : "obj-13",
					"maxclass" : "newobj",
					"numinlets" : 1,
					"numoutlets" : 1,
					"outlettype" : [ "" ],
					"patching_rect" : [ 427.0, 51.0, 46.0, 20.0 ],
					"text" : "history"
				}

			}
, 			{
				"box" : 				{
					"code" : "Param mult;\r\nParam swing;\r\nParam interp_amount;\r\nif(in2 == mult)\r\n{\r\n\tdiff = absdiff(wrap(in1, 0, in2), 0);\r\n\tout1 = diff<.000001;\r\n\tout2 = in2;\r\n\tout3 = diff>=(mult*swing);\r\n}\r\nelse\r\n{\r\n\r\n\tif(absdiff(wrap(in1, 0, mult), wrap(in1, 0, in2))<abs((mult-in2)*interp_amount))\r\n\t{\r\n\t\tdiff = absdiff(wrap(in1, 0, mult), 0);\r\n\t\tout1 = diff<.000001;\r\n\t\tout2 = mult;\r\n\t\tout3 = diff>=(mult*swing);\r\n\t}\r\n\telse\r\n\t{\r\n\t\tdiff = absdiff(wrap(in1, 0, in2), 0);\r\n\t\tout1 = diff<.000001;\r\n\t\tout2 = in2;\r\n\t\tout3 = diff>=(in2*swing);\r\n\t}\r\n}\r\n\r\n/*else\r\n{\r\n\r\n\tif(absdiff(wrap(in1, 0, mult), wrap(in1, 0, in2))<abs((mult-in2)*interp_amount))\r\n\t{\r\n\t\tdiff = absdiff(wrap(in1, 0, mult), 0);\r\n\t\tout1 = diff<.000001;\r\n\t\tout2 = mult;\r\n\t\tout3 = diff>=(mult*swing);\r\n\t}\r\n\telse\r\n\t{\r\n\t\tdiff = absdiff(wrap(in1, 0, mult), 0);\r\n\t\tout1 = diff<.000001;\r\n\t\tout2 = in2;\r\n\t\tout3 = diff>=(in2*swing);\r\n\t}\r\n}*/\r\n",
					"fontname" : "Arial",
					"fontsize" : 12.0,
					"id" : "obj-10",
					"maxclass" : "codebox",
					"numinlets" : 2,
					"numoutlets" : 3,
					"outlettype" : [ "", "", "" ],
					"patching_rect" : [ 23.0, 87.0, 423.0, 505.0 ]
				}

			}
, 			{
				"box" : 				{
					"fontname" : "Arial",
					"fontsize" : 12.0,
					"id" : "obj-17",
					"maxclass" : "newobj",
					"numinlets" : 0,
					"numoutlets" : 1,
					"outlettype" : [ "" ],
					"patching_rect" : [ 183.75, 12.0, 99.0, 20.0 ],
					"text" : "param swing 0.5"
				}

			}
, 			{
				"box" : 				{
					"fontname" : "Arial",
					"fontsize" : 12.0,
					"id" : "obj-7",
					"maxclass" : "newobj",
					"numinlets" : 1,
					"numoutlets" : 0,
					"patching_rect" : [ 427.0, 618.0, 37.0, 20.0 ],
					"text" : "out 2"
				}

			}
, 			{
				"box" : 				{
					"fontname" : "Arial",
					"fontsize" : 12.0,
					"id" : "obj-1",
					"maxclass" : "newobj",
					"numinlets" : 0,
					"numoutlets" : 1,
					"outlettype" : [ "" ],
					"patching_rect" : [ 23.0, 51.0, 30.0, 20.0 ],
					"text" : "in 1"
				}

			}
, 			{
				"box" : 				{
					"fontname" : "Arial",
					"fontsize" : 12.0,
					"id" : "obj-2",
					"maxclass" : "newobj",
					"numinlets" : 0,
					"numoutlets" : 1,
					"outlettype" : [ "" ],
					"patching_rect" : [ 23.0, 12.0, 124.0, 20.0 ],
					"text" : "param mult 0.001953"
				}

			}
, 			{
				"box" : 				{
					"fontname" : "Arial",
					"fontsize" : 12.0,
					"id" : "obj-4",
					"maxclass" : "newobj",
					"numinlets" : 1,
					"numoutlets" : 0,
					"patching_rect" : [ 23.0, 624.0, 37.0, 20.0 ],
					"text" : "out 1"
				}

			}
 ],
		"lines" : [ 			{
				"patchline" : 				{
					"destination" : [ "obj-10", 0 ],
					"disabled" : 0,
					"hidden" : 0,
					"source" : [ "obj-1", 0 ]
				}

			}
, 			{
				"patchline" : 				{
					"destination" : [ "obj-13", 0 ],
					"disabled" : 0,
					"hidden" : 0,
					"midpoints" : [ 234.5, 604.0, 488.5, 604.0, 488.5, 41.0, 436.5, 41.0 ],
					"source" : [ "obj-10", 1 ]
				}

			}
, 			{
				"patchline" : 				{
					"destination" : [ "obj-4", 0 ],
					"disabled" : 0,
					"hidden" : 0,
					"source" : [ "obj-10", 0 ]
				}

			}
, 			{
				"patchline" : 				{
					"destination" : [ "obj-7", 0 ],
					"disabled" : 0,
					"hidden" : 0,
					"source" : [ "obj-10", 2 ]
				}

			}
, 			{
				"patchline" : 				{
					"destination" : [ "obj-10", 1 ],
					"disabled" : 0,
					"hidden" : 0,
					"source" : [ "obj-13", 0 ]
				}

			}
 ]
	}

}
